<?xml version="1.0" encoding="UTF-8" standalone="no"?>
<svg
   width="220.69026mm"
   height="193.01999mm"
   id="svg14660"
   version="1.1"
   inkscape:version="1.2.2 (b0a8486541, 2022-12-01)"
   sodipodi:docname="thumbnails.svg"
   viewBox="0 0 834.10494 729.52438"
   xml:space="preserve"
   xmlns:inkscape="http://www.inkscape.org/namespaces/inkscape"
   xmlns:sodipodi="http://sodipodi.sourceforge.net/DTD/sodipodi-0.dtd"
   xmlns:xlink="http://www.w3.org/1999/xlink"
   xmlns="http://www.w3.org/2000/svg"
   xmlns:svg="http://www.w3.org/2000/svg"
   xmlns:rdf="http://www.w3.org/1999/02/22-rdf-syntax-ns#"
   xmlns:cc="http://creativecommons.org/ns#"
   xmlns:dc="http://purl.org/dc/elements/1.1/"><defs
     id="defs14662"><rect
       x="-51.496983"
       y="24.80711"
       width="8.2192755"
       height="16.644571"
       id="rect2087" /><marker
       inkscape:isstock="true"
       style="overflow:visible"
       id="marker1548"
       refX="0"
       refY="0"
       orient="auto"
       inkscape:stockid="Arrow2Send"><path
         transform="matrix(-0.3,0,0,-0.3,0.69,0)"
         d="M 8.7185878,4.0337352 -2.2072895,0.01601326 8.7185884,-4.0017078 c -1.7454984,2.3720609 -1.7354408,5.6174519 -6e-7,8.035443 z"
         style="fill:#000000;fill-opacity:1;fill-rule:evenodd;stroke:#000000;stroke-width:0.625;stroke-linejoin:round;stroke-opacity:1"
         id="path1546"
         inkscape:connector-curvature="0" /></marker><marker
       inkscape:stockid="Arrow2Send"
       orient="auto"
       refY="0"
       refX="0"
       id="marker7716"
       style="overflow:visible"
       inkscape:isstock="true"><path
         inkscape:connector-curvature="0"
         id="path7714"
         style="fill:#000000;fill-opacity:1;fill-rule:evenodd;stroke:#000000;stroke-width:0.625;stroke-linejoin:round;stroke-opacity:1"
         d="M 8.7185878,4.0337352 -2.2072895,0.01601326 8.7185884,-4.0017078 c -1.7454984,2.3720609 -1.7354408,5.6174519 -6e-7,8.035443 z"
         transform="matrix(-0.3,0,0,-0.3,0.69,0)" /></marker><marker
       inkscape:stockid="Arrow2Sstart"
       orient="auto"
       refY="0"
       refX="0"
       id="marker7550"
       style="overflow:visible"
       inkscape:isstock="true"><path
         id="path7548"
         style="fill:#000000;fill-opacity:1;fill-rule:evenodd;stroke:#000000;stroke-width:0.625;stroke-linejoin:round;stroke-opacity:1"
         d="M 8.7185878,4.0337352 -2.2072895,0.01601326 8.7185884,-4.0017078 c -1.7454984,2.3720609 -1.7354408,5.6174519 -6e-7,8.035443 z"
         transform="matrix(0.3,0,0,0.3,-0.69,0)" /></marker><marker
       inkscape:stockid="TriangleInS"
       orient="auto"
       refY="0"
       refX="0"
       id="marker5538"
       style="overflow:visible"
       inkscape:isstock="true"><path
         id="path5536"
         d="M 5.77,0 -2.88,5 V -5 Z"
         style="fill:#000000;fill-opacity:1;fill-rule:evenodd;stroke:#000000;stroke-width:1pt;stroke-opacity:1"
         transform="scale(-0.2)" /></marker><marker
       inkscape:stockid="TriangleInM"
       orient="auto"
       refY="0"
       refX="0"
       id="TriangleInM"
       style="overflow:visible"
       inkscape:isstock="true"><path
         id="path4860"
         d="M 5.77,0 -2.88,5 V -5 Z"
         style="fill:#000000;fill-opacity:1;fill-rule:evenodd;stroke:#000000;stroke-width:1pt;stroke-opacity:1"
         transform="scale(-0.4)" /></marker><marker
       inkscape:stockid="TriangleInS"
       orient="auto"
       refY="0"
       refX="0"
       id="TriangleInS"
       style="overflow:visible"
       inkscape:isstock="true"><path
         id="path4863"
         d="M 5.77,0 -2.88,5 V -5 Z"
         style="fill:#000000;fill-opacity:1;fill-rule:evenodd;stroke:#000000;stroke-width:1pt;stroke-opacity:1"
         transform="scale(-0.2)" /></marker><marker
       inkscape:stockid="Arrow1Sstart"
       orient="auto"
       refY="0"
       refX="0"
       id="marker5116"
       style="overflow:visible"
       inkscape:isstock="true"><path
         id="path5114"
         d="M 0,0 5,-5 -12.5,0 5,5 Z"
         style="fill:#000000;fill-opacity:1;fill-rule:evenodd;stroke:#000000;stroke-width:1pt;stroke-opacity:1"
         transform="matrix(0.2,0,0,0.2,1.2,0)" /></marker><marker
       inkscape:stockid="Arrow1Sstart"
       orient="auto"
       refY="0"
       refX="0"
       id="Arrow1Sstart"
       style="overflow:visible"
       inkscape:isstock="true"><path
         id="path4736"
         d="M 0,0 5,-5 -12.5,0 5,5 Z"
         style="fill:#000000;fill-opacity:1;fill-rule:evenodd;stroke:#000000;stroke-width:1pt;stroke-opacity:1"
         transform="matrix(0.2,0,0,0.2,1.2,0)" /></marker><marker
       style="overflow:visible"
       id="marker3292-3-8"
       refX="0"
       refY="0"
       orient="auto"
       inkscape:stockid="TriangleOutM"><path
         inkscape:connector-curvature="0"
         transform="scale(0.4)"
         style="fill-rule:evenodd;stroke:#000000;stroke-width:1pt"
         d="M 5.77,0 -2.88,5 V -5 Z"
         id="path3294-4-78" /></marker><marker
       style="overflow:visible"
       id="DotMv"
       refX="0"
       refY="0"
       orient="auto"
       inkscape:stockid="DotMv"
       viewBox="0 0 4.5333334 4.5333334"
       markerWidth="4.5333333"
       markerHeight="4.5333333"
       preserveAspectRatio="xMidYMid"><path
         inkscape:connector-curvature="0"
         transform="matrix(0.4,0,0,0.4,2.96,0.4)"
         style="fill:#0000ff;fill-rule:evenodd;stroke:#0000ff;stroke-width:1pt"
         d="m -2.5,-1 c 0,2.76 -2.24,5 -5,5 -2.76,0 -5,-2.24 -5,-5 0,-2.76 2.24,-5 5,-5 2.76,0 5,2.24 5,5 z"
         id="path45132" /></marker><marker
       style="overflow:visible"
       id="marker3292-3-8g"
       refX="0"
       refY="0"
       orient="auto"
       inkscape:stockid="marker3292-3-8g"><path
         inkscape:connector-curvature="0"
         transform="scale(0.4)"
         style="fill:#0000ff;fill-rule:evenodd;stroke:#0000ff;stroke-width:1pt"
         d="M 5.77,0 -2.88,5 V -5 Z"
         id="path24569" /></marker><marker
       style="overflow:visible"
       id="DotMvv"
       refX="0"
       refY="0"
       orient="auto"
       inkscape:stockid="DotMvv"><path
         inkscape:connector-curvature="0"
         transform="matrix(0.4,0,0,0.4,2.96,0.4)"
         style="fill:#0000ff;fill-rule:evenodd;stroke:#0000ff;stroke-width:1pt"
         d="m -2.5,-1 c 0,2.76 -2.24,5 -5,5 -2.76,0 -5,-2.24 -5,-5 0,-2.76 2.24,-5 5,-5 2.76,0 5,2.24 5,5 z"
         id="path24572" /></marker><marker
       style="overflow:visible"
       id="marker14280"
       refX="0"
       refY="0"
       orient="auto"
       inkscape:stockid="DotMv"><path
         inkscape:connector-curvature="0"
         transform="matrix(0.4,0,0,0.4,2.96,0.4)"
         style="fill:#0000ff;fill-rule:evenodd;stroke:#0000ff;stroke-width:1pt"
         d="m -2.5,-1 c 0,2.76 -2.24,5 -5,5 -2.76,0 -5,-2.24 -5,-5 0,-2.76 2.24,-5 5,-5 2.76,0 5,2.24 5,5 z"
         id="path14282" /></marker><marker
       style="overflow:visible"
       id="marker14284"
       refX="0"
       refY="0"
       orient="auto"
       inkscape:stockid="DotMv"><path
         inkscape:connector-curvature="0"
         transform="matrix(0.4,0,0,0.4,2.96,0.4)"
         style="fill:#0000ff;fill-rule:evenodd;stroke:#0000ff;stroke-width:1pt"
         d="m -2.5,-1 c 0,2.76 -2.24,5 -5,5 -2.76,0 -5,-2.24 -5,-5 0,-2.76 2.24,-5 5,-5 2.76,0 5,2.24 5,5 z"
         id="path14286" /></marker><marker
       style="overflow:visible"
       id="marker14288"
       refX="0"
       refY="0"
       orient="auto"
       inkscape:stockid="TriangleOutM"><path
         inkscape:connector-curvature="0"
         transform="scale(0.4)"
         style="fill-rule:evenodd;stroke:#000000;stroke-width:1pt"
         d="M 5.77,0 -2.88,5 V -5 Z"
         id="path14290" /></marker><marker
       style="overflow:visible"
       id="marker14292"
       refX="0"
       refY="0"
       orient="auto"
       inkscape:stockid="TriangleOutM"><path
         inkscape:connector-curvature="0"
         transform="scale(0.4)"
         style="fill-rule:evenodd;stroke:#000000;stroke-width:1pt"
         d="M 5.77,0 -2.88,5 V -5 Z"
         id="path14294" /></marker><marker
       style="overflow:visible"
       id="marker14296"
       refX="0"
       refY="0"
       orient="auto"
       inkscape:stockid="TriangleOutM"><path
         inkscape:connector-curvature="0"
         transform="scale(0.4)"
         style="fill-rule:evenodd;stroke:#000000;stroke-width:1pt"
         d="M 5.77,0 -2.88,5 V -5 Z"
         id="path14298" /></marker><marker
       style="overflow:visible"
       id="marker3292-3"
       refX="0"
       refY="0"
       orient="auto"
       inkscape:stockid="TriangleOutM"><path
         inkscape:connector-curvature="0"
         transform="scale(0.4)"
         style="fill-rule:evenodd;stroke:#000000;stroke-width:1pt"
         d="M 5.77,0 -2.88,5 V -5 Z"
         id="path3294-4" /></marker><marker
       style="overflow:visible"
       id="marker14302"
       refX="0"
       refY="0"
       orient="auto"
       inkscape:stockid="TriangleOutM"><path
         inkscape:connector-curvature="0"
         transform="scale(0.4)"
         style="fill-rule:evenodd;stroke:#000000;stroke-width:1pt"
         d="M 5.77,0 -2.88,5 V -5 Z"
         id="path14304" /></marker><marker
       style="overflow:visible"
       id="marker14306"
       refX="0"
       refY="0"
       orient="auto"
       inkscape:stockid="TriangleOutM"><path
         inkscape:connector-curvature="0"
         transform="scale(0.4)"
         style="fill-rule:evenodd;stroke:#000000;stroke-width:1pt"
         d="M 5.77,0 -2.88,5 V -5 Z"
         id="path14308" /></marker><marker
       style="overflow:visible"
       id="marker14310"
       refX="0"
       refY="0"
       orient="auto"
       inkscape:stockid="TriangleOutM"><path
         inkscape:connector-curvature="0"
         transform="scale(0.4)"
         style="fill-rule:evenodd;stroke:#000000;stroke-width:1pt"
         d="M 5.77,0 -2.88,5 V -5 Z"
         id="path14312" /></marker><marker
       style="overflow:visible"
       id="marker14314"
       refX="0"
       refY="0"
       orient="auto"
       inkscape:stockid="TriangleOutM"><path
         inkscape:connector-curvature="0"
         transform="scale(0.4)"
         style="fill-rule:evenodd;stroke:#000000;stroke-width:1pt"
         d="M 5.77,0 -2.88,5 V -5 Z"
         id="path14316" /></marker><marker
       style="overflow:visible"
       id="marker14318"
       refX="0"
       refY="0"
       orient="auto"
       inkscape:stockid="TriangleOutM"><path
         inkscape:connector-curvature="0"
         transform="scale(0.4)"
         style="fill-rule:evenodd;stroke:#000000;stroke-width:1pt"
         d="M 5.77,0 -2.88,5 V -5 Z"
         id="path14320" /></marker><marker
       inkscape:isstock="true"
       style="overflow:visible"
       id="marker4180"
       refX="0"
       refY="0"
       orient="auto"
       inkscape:stockid="Arrow2Send"><path
         transform="matrix(-0.3,0,0,-0.3,0.69,0)"
         d="M 8.7185878,4.0337352 -2.2072895,0.01601326 8.7185884,-4.0017078 c -1.7454984,2.3720609 -1.7354408,5.6174519 -6e-7,8.035443 z"
         style="fill:#000000;fill-opacity:1;fill-rule:evenodd;stroke:#000000;stroke-width:0.625;stroke-linejoin:round;stroke-opacity:1"
         id="path4178"
         inkscape:connector-curvature="0" /></marker><marker
       inkscape:isstock="true"
       style="overflow:visible"
       id="marker12015"
       refX="0"
       refY="0"
       orient="auto"
       inkscape:stockid="Arrow2Send"><path
         transform="matrix(-0.3,0,0,-0.3,0.69,0)"
         d="M 8.7185878,4.0337352 -2.2072895,0.01601326 8.7185884,-4.0017078 c -1.7454984,2.3720609 -1.7354408,5.6174519 -6e-7,8.035443 z"
         style="fill:#000000;fill-opacity:1;fill-rule:evenodd;stroke:#000000;stroke-width:0.625;stroke-linejoin:round;stroke-opacity:1"
         id="path12013"
         inkscape:connector-curvature="0" /></marker><marker
       inkscape:isstock="true"
       style="overflow:visible"
       id="marker4202"
       refX="0"
       refY="0"
       orient="auto"
       inkscape:stockid="Arrow2Send"><path
         transform="matrix(-0.3,0,0,-0.3,0.69,0)"
         d="M 8.7185878,4.0337352 -2.2072895,0.01601326 8.7185884,-4.0017078 c -1.7454984,2.3720609 -1.7354408,5.6174519 -6e-7,8.035443 z"
         style="fill:#000000;fill-opacity:1;fill-rule:evenodd;stroke:#000000;stroke-width:0.625;stroke-linejoin:round;stroke-opacity:1"
         id="path4200"
         inkscape:connector-curvature="0" /></marker><marker
       inkscape:isstock="true"
       style="overflow:visible"
       id="marker2092"
       refX="0"
       refY="0"
       orient="auto"
       inkscape:stockid="Arrow2Send"><path
         transform="matrix(-0.3,0,0,-0.3,0.69,0)"
         d="M 8.7185878,4.0337352 -2.2072895,0.01601326 8.7185884,-4.0017078 c -1.7454984,2.3720609 -1.7354408,5.6174519 -6e-7,8.035443 z"
         style="fill:#000000;fill-opacity:1;fill-rule:evenodd;stroke:#000000;stroke-width:0.625;stroke-linejoin:round;stroke-opacity:1"
         id="path2090"
         inkscape:connector-curvature="0" /></marker><marker
       inkscape:isstock="true"
       style="overflow:visible"
       id="marker12015-5"
       refX="0"
       refY="0"
       orient="auto"
       inkscape:stockid="Arrow2Send"><path
         transform="matrix(-0.3,0,0,-0.3,0.69,0)"
         d="M 8.7185878,4.0337352 -2.2072895,0.01601326 8.7185884,-4.0017078 c -1.7454984,2.3720609 -1.7354408,5.6174519 -6e-7,8.035443 z"
         style="fill:#000000;fill-opacity:1;fill-rule:evenodd;stroke:#000000;stroke-width:0.625;stroke-linejoin:round;stroke-opacity:1"
         id="path12013-6"
         inkscape:connector-curvature="0" /></marker><marker
       inkscape:isstock="true"
       style="overflow:visible"
       id="marker4202-0"
       refX="0"
       refY="0"
       orient="auto"
       inkscape:stockid="Arrow2Send"><path
         transform="matrix(-0.3,0,0,-0.3,0.69,0)"
         d="M 8.7185878,4.0337352 -2.2072895,0.01601326 8.7185884,-4.0017078 c -1.7454984,2.3720609 -1.7354408,5.6174519 -6e-7,8.035443 z"
         style="fill:#000000;fill-opacity:1;fill-rule:evenodd;stroke:#000000;stroke-width:0.625;stroke-linejoin:round;stroke-opacity:1"
         id="path4200-6"
         inkscape:connector-curvature="0" /></marker><marker
       inkscape:isstock="true"
       style="overflow:visible"
       id="marker12015-5-2"
       refX="0"
       refY="0"
       orient="auto"
       inkscape:stockid="Arrow2Send"><path
         transform="matrix(-0.3,0,0,-0.3,0.69,0)"
         d="M 8.7185878,4.0337352 -2.2072895,0.01601326 8.7185884,-4.0017078 c -1.7454984,2.3720609 -1.7354408,5.6174519 -6e-7,8.035443 z"
         style="fill:#000000;fill-opacity:1;fill-rule:evenodd;stroke:#000000;stroke-width:0.625;stroke-linejoin:round;stroke-opacity:1"
         id="path12013-6-2"
         inkscape:connector-curvature="0" /></marker><marker
       inkscape:stockid="Arrow2Sstart"
       orient="auto"
       refY="0"
       refX="0"
       id="marker7550-3"
       style="overflow:visible"
       inkscape:isstock="true"><path
         id="path7548-6"
         style="fill:#000000;fill-opacity:1;fill-rule:evenodd;stroke:#000000;stroke-width:0.625;stroke-linejoin:round;stroke-opacity:1"
         d="M 8.7185878,4.0337352 -2.2072895,0.01601326 8.7185884,-4.0017078 c -1.7454984,2.3720609 -1.7354408,5.6174519 -6e-7,8.035443 z"
         transform="matrix(0.3,0,0,0.3,-0.69,0)" /></marker><marker
       inkscape:isstock="true"
       style="overflow:visible"
       id="marker4202-7"
       refX="0"
       refY="0"
       orient="auto"
       inkscape:stockid="Arrow2Send"><path
         transform="matrix(-0.3,0,0,-0.3,0.69,0)"
         d="M 8.7185878,4.0337352 -2.2072895,0.01601326 8.7185884,-4.0017078 c -1.7454984,2.3720609 -1.7354408,5.6174519 -6e-7,8.035443 z"
         style="fill:#000000;fill-opacity:1;fill-rule:evenodd;stroke:#000000;stroke-width:0.625;stroke-linejoin:round;stroke-opacity:1"
         id="path4200-5"
         inkscape:connector-curvature="0" /></marker><g
       id="g306"><symbol
         overflow="visible"
         id="symbol910"><path
           style="stroke:none"
           d="m 3.1875,-1.6875 v -0.171875 c 0,-1.078125 1.609375,-1.859375 1.609375,-3.328125 0,-1.03125 -0.875,-1.484375 -1.84375,-1.484375 -1.015625,0 -1.703125,0.578125 -1.703125,1.375 0,0.46875 0.203125,0.703125 0.515625,0.703125 0.234375,0 0.453125,-0.125 0.453125,-0.4375 C 2.21875,-5.40625 2,-5.421875 2,-5.75 c 0,-0.3125 0.265625,-0.546875 0.859375,-0.546875 0.640625,0 1.03125,0.359375 1.03125,1.140625 0,1.53125 -1.09375,1.90625 -1.09375,3.203125 V -1.6875 Z m 0.375,1.203125 c 0,-0.296875 -0.203125,-0.578125 -0.546875,-0.578125 -0.375,0 -0.59375,0.265625 -0.59375,0.578125 0,0.328125 0.1875,0.5625 0.578125,0.5625 0.359375,0 0.5625,-0.234375 0.5625,-0.5625 z M 5.9375,1.6875 V -7.828125 H 0.09375 V 1.6875 Z M 5.40625,1.15625 H 0.609375 V -7.3125 H 5.40625 Z m 0,0"
           id="path54" /></symbol><symbol
         overflow="visible"
         id="symbol3784"><path
           style="stroke:none"
           d="M 1.984375,-4.65625 1.9375,-4.25 h 0.828125 l -0.6875,3.71875 C 1.984375,0 1.71875,1.890625 1.140625,1.890625 0.765625,1.890625 1.109375,1 0.515625,1 0.25,1 0.09375,1.21875 0.09375,1.5 c 0,0.359375 0.25,0.71875 0.890625,0.71875 1.359375,0 1.8125,-2.234375 1.984375,-3.09375 l 0.625,-3.375 h 0.921875 l 0.0625,-0.40625 h -0.9375 l 0.125,-0.703125 c 0.171875,-0.84375 0.484375,-1.4375 1.015625,-1.4375 0.203125,0 0.1875,0.265625 0.21875,0.5 0.03125,0.203125 0.140625,0.375 0.375,0.375 0.25,0 0.4375,-0.15625 0.4375,-0.453125 0,-0.421875 -0.328125,-0.71875 -0.890625,-0.71875 -0.90625,0 -1.3125,0.46875 -1.578125,0.9375 -0.25,0.40625 -0.375,0.9375 -0.5,1.5 z m 0,0"
           id="path1341" /></symbol><symbol
         overflow="visible"
         id="symbol1753"><path
           style="stroke:none"
           d="m 0.421875,-2.734375 c 0,2.203125 1.046875,3.765625 2.65625,4.59375 l 0.15625,-0.28125 C 1.78125,0.625 1.25,-0.734375 1.25,-2.734375 c 0,-1.984375 0.53125,-3.3125 1.984375,-4.28125 L 3.078125,-7.28125 c -1.609375,0.828125 -2.65625,2.375 -2.65625,4.546875 z m 0,0"
           id="path5242" /></symbol><symbol
         overflow="visible"
         id="symbol2148"><path
           style="stroke:none"
           d="m 3.140625,-2.96875 h -0.03125 l -0.125,-0.515625 c -0.140625,-0.53125 -0.328125,-0.96875 -0.5625,-1.25 h -0.15625 l -1.375,0.15625 v 0.296875 c 0,0 0.140625,-0.03125 0.3125,-0.03125 0.65625,0 0.828125,0.265625 1.09375,1.109375 l 0.28125,0.90625 L 1.859375,-1.25 C 1.46875,-0.703125 1.28125,-0.6875 1.25,-0.6875 c -0.171875,0 -0.40625,-0.125 -0.625,-0.125 -0.25,0 -0.390625,0.21875 -0.390625,0.40625 0,0.25 0.140625,0.5 0.578125,0.5 0.59375,0 0.921875,-0.46875 1.234375,-0.984375 L 2.6875,-1.9375 h 0.046875 l 0.25,1.015625 C 3.125,-0.28125 3.34375,0.09375 3.796875,0.09375 c 0.671875,0 1.09375,-0.671875 1.390625,-1.109375 L 4.96875,-1.171875 C 4.703125,-0.8125 4.515625,-0.625 4.25,-0.625 c -0.296875,0 -0.5,-0.359375 -0.78125,-1.28125 L 3.265625,-2.578125 3.875,-3.546875 c 0.15625,-0.28125 0.296875,-0.421875 0.53125,-0.421875 0.125,0 0.359375,0.09375 0.515625,0.09375 0.265625,0 0.46875,-0.21875 0.46875,-0.46875 0,-0.265625 -0.125,-0.4375 -0.5,-0.4375 -0.59375,0 -1,0.5 -1.265625,0.96875 z m 0,0"
           id="path9848" /></symbol><symbol
         overflow="visible"
         id="symbol4774"><path
           style="stroke:none"
           d="m 3.125,-2.734375 c 0,-2.171875 -1.046875,-3.71875 -2.65625,-4.546875 L 0.3125,-7.015625 c 1.453125,0.96875 1.984375,2.296875 1.984375,4.28125 0,2 -0.53125,3.359375 -1.984375,4.3125 l 0.15625,0.28125 C 2.078125,1.03125 3.125,-0.53125 3.125,-2.734375 Z m 0,0"
           id="path7183" /></symbol><symbol
         overflow="visible"
         id="symbol7079"><path
           style="stroke:none"
           d="M 6.5625,-3.265625 V -3.9375 H 0.625 v 0.671875 z m 0,2.046875 V -1.890625 H 0.625 v 0.671875 z m 0,0"
           id="path9865" /></symbol><symbol
         overflow="visible"
         id="symbol2877"><path
           style="stroke:none"
           d="M 8.578125,6.421875 H 8.1875 c -0.40625,1.359375 -0.75,2.1875 -2,2.1875 H 1.953125 V 8.5625 L 5.4375,3.984375 V 3.78125 L 2.359375,-0.109375 V -0.15625 h 3.28125 c 1.34375,0 2,0.3125 2.21875,1.96875 H 8.25 L 8.140625,-0.671875 H 0.6875 V -0.4375 L 4.46875,4.3125 0.625,9.34375 v 0.25 h 7.34375 z m 0,0"
           id="path5995" /></symbol><symbol
         overflow="visible"
         id="symbol4438"><path
           style="stroke:none"
           d="m 4.015625,-3.3125 c -0.09375,-0.5625 -0.28125,-1.46875 -1.25,-1.46875 -1.375,0 -2.34375,1.25 -2.34375,3.078125 0,1.140625 0.328125,1.84375 1.140625,1.84375 0.734375,0 1.390625,-0.78125 1.984375,-1.71875 H 3.625 C 3.59375,-1.25 3.546875,-0.984375 3.546875,-0.734375 3.546875,-0.25 3.71875,0.109375 4.1875,0.109375 5,0.109375 5.375,-0.625 5.515625,-0.875 l -0.15625,-0.15625 c -0.1875,0.21875 -0.375,0.390625 -0.671875,0.390625 -0.5625,0 -0.53125,-1.0625 -0.53125,-1.796875 0,-0.03125 0.484375,-0.703125 1.25,-1.765625 C 5.46875,-4.296875 5.625,-4.46875 5.6875,-4.5625 V -4.703125 L 4.859375,-4.6875 c -0.1875,0.265625 -0.546875,0.8125 -0.78125,1.375 z M 1.78125,-0.734375 C 1.328125,-0.734375 0.875,-1.0625 0.875,-1.9375 c 0,-1.328125 0.765625,-2.015625 1.84375,-2.015625 0.640625,0 0.96875,0.28125 0.96875,0.90625 0,0.15625 -0.015625,0.28125 -0.015625,0.34375 -0.078125,0.6875 -0.875,1.96875 -1.890625,1.96875 z m 0,0"
           id="path4100" /></symbol><symbol
         overflow="visible"
         id="symbol3152"><path
           style="stroke:none"
           d="M 2.984375,1.859375 V 1.5625 H 1.6875 V -7 H 2.984375 V -7.296875 H 0.90625 v 9.15625 z m 0,0"
           id="path5714" /></symbol><symbol
         overflow="visible"
         id="symbol1773"><path
           style="stroke:none"
           d="m 5.1875,-1.109375 c -0.140625,0.1875 -0.390625,0.515625 -0.734375,0.515625 -0.140625,0 -0.1875,-0.078125 -0.1875,-0.1875 0,-0.125 0.015625,-0.25 0.015625,-0.25 L 4.859375,-3.328125 C 4.890625,-3.46875 4.9375,-3.8125 4.9375,-4.0625 c 0,-0.359375 -0.140625,-0.71875 -0.65625,-0.71875 -1.171875,0 -2.015625,1.453125 -2.4375,2.203125 H 1.765625 l 0.5,-2.171875 H 2.046875 L 0.65625,-4.640625 v 0.28125 c 0,0 0.203125,-0.03125 0.328125,-0.03125 0.234375,0 0.328125,0.109375 0.328125,0.28125 0,0.140625 -0.03125,0.328125 -0.03125,0.328125 L 0.46875,0 h 0.8125 L 1.640625,-1.578125 C 1.96875,-2.265625 3.0625,-4.0625 3.78125,-4.0625 c 0.234375,0 0.3125,0.171875 0.3125,0.40625 0,0.203125 -0.078125,0.46875 -0.078125,0.46875 l -0.59375,2.3125 c 0,0.046875 -0.046875,0.234375 -0.046875,0.390625 0,0.296875 0.15625,0.578125 0.65625,0.578125 0.71875,0 1.109375,-0.6875 1.375,-1.0625 z m 0,0"
           id="path4870" /></symbol><symbol
         overflow="visible"
         id="symbol9391"><path
           style="stroke:none"
           d="m 2.546875,1.859375 v -9.15625 H 0.46875 V -7 H 1.765625 V 1.5625 H 0.46875 v 0.296875 z m 0,0"
           id="path2648" /></symbol><symbol
         overflow="visible"
         id="symbol2787"><path
           style="stroke:none"
           d="m 0.390625,-1.640625 0.03125,1.71875 H 0.625 L 0.84375,-0.15625 h 0.015625 c 0.25,0.109375 0.5625,0.265625 1.140625,0.265625 0.890625,0 1.671875,-0.359375 1.671875,-1.296875 0,-0.734375 -0.484375,-1.109375 -1.40625,-1.578125 -0.828125,-0.4375 -1.15625,-0.6875 -1.15625,-1.078125 0,-0.4375 0.34375,-0.65625 0.796875,-0.65625 0.609375,0 0.984375,0.296875 1.203125,1.234375 H 3.375 L 3.34375,-4.78125 H 3.15625 L 2.984375,-4.578125 H 2.96875 c -0.25,-0.109375 -0.546875,-0.25 -1.046875,-0.25 -0.859375,0 -1.515625,0.4375 -1.515625,1.25 0,0.734375 0.40625,1.078125 1.3125,1.546875 0.921875,0.453125 1.109375,0.640625 1.109375,1.109375 0,0.46875 -0.359375,0.65625 -0.859375,0.65625 -0.734375,0 -1.109375,-0.34375 -1.328125,-1.375 z m 0,0"
           id="path4515" /></symbol><symbol
         overflow="visible"
         id="symbol7843"><path
           style="stroke:none"
           d="m 1.453125,-6.90625 c -0.359375,0 -0.578125,0.25 -0.578125,0.5625 0,0.296875 0.234375,0.5625 0.578125,0.5625 0.34375,0 0.5625,-0.265625 0.5625,-0.5625 0,-0.3125 -0.21875,-0.5625 -0.5625,-0.5625 z m 1.109375,6.625 C 1.890625,-0.28125 1.84375,-0.421875 1.84375,-1 V -4.8125 H 1.578125 l -1.25,0.28125 v 0.296875 c 0,0 0.109375,-0.015625 0.25,-0.015625 0.296875,0 0.4375,0.03125 0.4375,0.46875 V -1 c 0,0.5625 -0.03125,0.71875 -0.703125,0.71875 V 0 h 2.25 z m 0,0"
           id="path1843" /></symbol><symbol
         overflow="visible"
         id="symbol1569"><path
           style="stroke:none"
           d="m 4.796875,-3.0625 c 0,-1.140625 -0.4375,-1.765625 -1.34375,-1.765625 -0.625,0 -1.0625,0.359375 -1.59375,0.828125 H 1.8125 L 1.828125,-4.8125 H 1.59375 l -1.265625,0.296875 v 0.28125 c 0,0 0.09375,-0.015625 0.265625,-0.015625 0.28125,0 0.421875,0.078125 0.421875,0.4375 V -1 c 0,0.546875 -0.03125,0.71875 -0.703125,0.71875 V 0 H 2.609375 V -0.28125 C 1.890625,-0.28125 1.84375,-0.453125 1.84375,-1 V -3.5625 C 2.140625,-3.84375 2.515625,-4.203125 3.046875,-4.203125 3.5,-4.203125 3.96875,-4 3.96875,-2.8125 V -1 c 0,0.546875 -0.03125,0.71875 -0.734375,0.71875 V 0 H 5.53125 V -0.28125 C 4.859375,-0.28125 4.796875,-0.453125 4.796875,-1 Z m 0,0"
           id="path5795" /></symbol><symbol
         overflow="visible"
         id="symbol1394"><path
           style="stroke:none"
           d="m 4.75,-4.71875 c 0,-1.453125 -0.4375,-2.421875 -1.375,-2.421875 -1.625,0 -3.03125,2.328125 -3.03125,5.0625 0,1.546875 0.65625,2.21875 1.546875,2.21875 1.5625,0 2.859375,-1.828125 2.859375,-4.859375 z m -2.65625,3.984375 c -0.53125,0 -1.203125,-0.359375 -1.203125,-1.765625 0,-0.25 0.015625,-0.625 0.046875,-0.875 h 3.234375 c -0.265625,1.890625 -1.125,2.640625 -2.078125,2.640625 z M 3.171875,-6.28125 c 0.78125,0 1.09375,0.859375 1.09375,1.796875 C 4.265625,-4.3125 4.25,-4.09375 4.25,-3.890625 H 1.03125 c 0.359375,-1.5 1.296875,-2.390625 2.140625,-2.390625 z m 0,0"
           id="path4634" /></symbol><symbol
         overflow="visible"
         id="symbol7512"><path
           style="stroke:none"
           d="M 6.234375,-4.71875 C 5.6875,-4.671875 5.109375,-4.65625 4.5,-4.65625 3.78125,-4.671875 3.234375,-4.703125 2.515625,-4.703125 c -0.953125,0 -1.625,0.296875 -2.03125,1.171875 L 0.703125,-3.375 C 1.125,-3.890625 1.34375,-3.90625 2.40625,-3.90625 2.171875,-3.0625 1.890625,-2.484375 1.359375,-1.6875 0.875,-0.921875 0.75,-0.765625 0.3125,-0.140625 V 0 H 1.25 c 0.421875,-0.671875 1.328125,-2.84375 1.546875,-3.890625 0.5,0 0.9375,0.015625 1.4375,0.015625 C 3.8125,-2.765625 3.25,-1.53125 3.25,-0.671875 3.25,-0.265625 3.421875,0.09375 3.890625,0.09375 4.5,0.09375 4.921875,-0.203125 5.25,-0.6875 L 5.125,-0.859375 c -0.171875,0.125 -0.34375,0.25 -0.703125,0.25 -0.3125,0 -0.390625,-0.328125 -0.390625,-0.59375 0,-0.765625 0.46875,-2.171875 0.640625,-2.65625 0.25,0.015625 0.375,0.015625 0.53125,0.015625 0.671875,0 1,-0.5 1.046875,-0.75 z m 0,0"
           id="path9463" /></symbol><symbol
         overflow="visible"
         id="symbol3280"><path
           style="stroke:none"
           d="M 4.875,-7.25 H 4.140625 L 0.46875,2.265625 h 0.734375 z m 0,0"
           id="path1612" /></symbol><symbol
         overflow="visible"
         id="symbol4962"><path
           style="stroke:none"
           d="M 4.625,-1.59375 H 4.34375 C 4.109375,-1 3.984375,-0.78125 3.453125,-0.78125 H 2.0625 L 1.359375,-0.75 V -0.8125 L 2.6875,-2.046875 C 3.734375,-3.125 4.3125,-3.8125 4.3125,-4.6875 c 0,-1.046875 -0.796875,-1.734375 -1.921875,-1.734375 -0.96875,0 -1.640625,0.5625 -1.953125,1.53125 l 0.234375,0.09375 c 0.375,-0.75 0.8125,-0.96875 1.46875,-0.96875 0.765625,0 1.234375,0.46875 1.234375,1.21875 0,1.046875 -0.5,1.671875 -1.484375,2.6875 L 0.375,-0.34375 V 0 h 3.9375 z m 0,0"
           id="path1051" /></symbol></g><g
       id="g2417"><symbol
         overflow="visible"
         id="symbol6863"><path
           style="stroke:none"
           d=""
           id="path2111" /></symbol><symbol
         overflow="visible"
         id="symbol8919"><path
           style="stroke:none"
           d="m 2.578125,-3.84375 h 1.09375 L 3.78125,-4.421875 h -1.125 L 2.921875,-5.65625 c 0.09375,-0.5 0.59375,-0.765625 1.09375,-0.765625 0.125,0 0.4375,0.015625 0.765625,0.171875 l 0.140625,-0.671875 c -0.25,-0.0625 -0.515625,-0.109375 -0.765625,-0.109375 -0.984375,0 -1.8125,0.765625 -2,1.65625 L 1.9375,-4.421875 H 1.203125 L 1.09375,-3.84375 H 1.828125 L 1,0 h 0.75 z m 0,0"
           id="path1875" /></symbol><symbol
         overflow="visible"
         id="symbol3043"><path
           style="stroke:none"
           d="m 3.078125,-2.28125 2.28125,-2.140625 H 4.53125 L 2.859375,-2.78125 1.828125,-4.421875 H 1 L 2.421875,-2.28125 0,0 H 0.8125 L 2.65625,-1.875 3.765625,0 h 0.8125 z m 0,0"
           id="path7930" /></symbol><symbol
         overflow="visible"
         id="symbol1351"><path
           style="stroke:none"
           d="m 4.96875,-3.03125 c 0.0625,-0.28125 0.0625,-0.359375 0.0625,-0.5 0,-0.609375 -0.296875,-1 -1.09375,-1 -0.625,0 -1.1875,0.296875 -1.609375,0.75 l 0.15625,-0.703125 H 1.765625 L 0.8125,0 H 1.578125 L 2.0625,-2.265625 c 0.234375,-1.09375 0.703125,-1.65625 1.359375,-1.65625 0.46875,0 0.8125,0.15625 0.8125,0.65625 0,0.03125 -0.03125,0.1875 -0.03125,0.203125 L 3.5625,0 h 0.78125 z m 0,0"
           id="path8499" /></symbol><symbol
         overflow="visible"
         id="symbol423"><path
           style="stroke:none"
           d=""
           id="path856" /></symbol><symbol
         overflow="visible"
         id="symbol9135"><path
           style="stroke:none"
           d="M 2.703125,-7.484375 C 2.375,-7.171875 1.71875,-6.5625 1.25,-5.34375 0.859375,-4.28125 0.78125,-3.21875 0.78125,-2.5 c 0,3.234375 1.4375,4.546875 1.921875,5 H 3.3125 c -0.484375,-0.484375 -1.75,-1.765625 -1.75,-5 0,-0.546875 0.03125,-1.71875 0.4375,-2.890625 0.40625,-1.15625 0.984375,-1.75 1.3125,-2.09375 z m 0,0"
           id="path3339" /></symbol><symbol
         overflow="visible"
         id="symbol6168"><path
           style="stroke:none"
           d="m 1.171875,2.5 c 0.3125,-0.3125 0.984375,-0.921875 1.4375,-2.140625 0.40625,-1.0625 0.46875,-2.125 0.46875,-2.859375 0,-3.21875 -1.4375,-4.53125 -1.90625,-4.984375 H 0.5625 C 1.03125,-7 2.296875,-5.71875 2.296875,-2.5 c 0,0.5625 -0.03125,1.734375 -0.4375,2.90625 C 1.453125,1.5625 0.890625,2.15625 0.5625,2.5 Z m 0,0"
           id="path2568" /></symbol><symbol
         overflow="visible"
         id="symbol7734"><path
           style="stroke:none"
           d="m 6.84375,-3.296875 c 0.15625,0 0.34375,0 0.34375,-0.1875 C 7.1875,-3.6875 7,-3.6875 6.859375,-3.6875 h -5.96875 c -0.140625,0 -0.328125,0 -0.328125,0.203125 0,0.1875 0.1875,0.1875 0.328125,0.1875 z m 0.015625,2 C 7,-1.296875 7.1875,-1.296875 7.1875,-1.5 7.1875,-1.6875 7,-1.6875 6.84375,-1.6875 H 0.890625 c -0.140625,0 -0.328125,0 -0.328125,0.1875 0,0.203125 0.1875,0.203125 0.328125,0.203125 z m 0,0"
           id="path1118" /></symbol><symbol
         overflow="visible"
         id="symbol7217"><path
           style="stroke:none"
           d="M 2.65625,2.5 V 1.890625 H 1.734375 V -6.875 H 2.65625 V -7.484375 H 1.015625 V 2.5 Z m 0,0"
           id="path5020" /></symbol><symbol
         overflow="visible"
         id="symbol1269"><path
           style="stroke:none"
           d="M 1.859375,-7.484375 H 0.21875 V -6.875 H 1.140625 V 1.890625 H 0.21875 V 2.5 h 1.640625 z m 0,0"
           id="path4105" /></symbol><symbol
         overflow="visible"
         id="symbol6881"><path
           style="stroke:none"
           d="M 3.421875,-4.28125 C 2.90625,-4.515625 2.5,-4.59375 1.984375,-4.59375 c -0.25,0 -1.65625,0 -1.65625,1.296875 0,0.5 0.296875,0.8125 0.546875,1 0.296875,0.21875 0.515625,0.265625 1.0625,0.375 0.359375,0.0625 0.9375,0.1875 0.9375,0.71875 0,0.6875 -0.78125,0.6875 -0.9375,0.6875 -0.796875,0 -1.359375,-0.375 -1.53125,-0.484375 l -0.125,0.671875 c 0.3125,0.15625 0.859375,0.4375 1.671875,0.4375 0.1875,0 0.734375,0 1.15625,-0.3125 0.3125,-0.25 0.484375,-0.640625 0.484375,-1.078125 0,-0.546875 -0.375,-0.875 -0.390625,-0.90625 C 2.8125,-2.546875 2.546875,-2.609375 2.046875,-2.6875 1.5,-2.796875 1.03125,-2.90625 1.03125,-3.390625 1.03125,-4 1.75,-4 1.890625,-4 c 0.3125,0 0.84375,0.03125 1.40625,0.375 z m 0,0"
           id="path6571" /></symbol><symbol
         overflow="visible"
         id="symbol2736"><path
           style="stroke:none"
           d="M 1.625,-6.78125 H 0.734375 v 0.890625 H 1.625 Z m -0.0625,2.359375 h -0.75 V 0 h 0.75 z m 0,0"
           id="path7014" /></symbol><symbol
         overflow="visible"
         id="symbol6244"><path
           style="stroke:none"
           d="m 4.34375,-2.96875 c 0,-0.65625 -0.15625,-1.5625 -1.375,-1.5625 -0.890625,0 -1.390625,0.671875 -1.4375,0.75 V -4.484375 H 0.8125 V 0 h 0.765625 v -2.4375 c 0,-0.65625 0.25,-1.484375 1.015625,-1.484375 0.953125,0 0.96875,0.703125 0.96875,1.015625 V 0 h 0.78125 z m 0,0"
           id="path8721" /></symbol><symbol
         overflow="visible"
         id="symbol1219"><path
           style="stroke:none"
           d="M 1.734375,-1.875 0.5,-0.640625 V 0 h 3.96875 v -0.703125 h -1.8125 c -0.109375,0 -0.234375,0 -0.359375,0 H 1.21875 c 0.3125,-0.28125 1.078125,-1.015625 1.390625,-1.3125 0.1875,-0.171875 0.6875,-0.59375 0.875,-0.78125 0.453125,-0.4375 0.984375,-0.96875 0.984375,-1.8125 0,-1.15625 -0.796875,-2.15625 -2.109375,-2.15625 -1.140625,0 -1.703125,0.78125 -1.9375,1.640625 0.109375,0.171875 0.171875,0.234375 0.1875,0.265625 0.015625,0.015625 0.125,0.140625 0.21875,0.28125 C 1.03125,-5.34375 1.3125,-6.125 2.21875,-6.125 c 0.9375,0 1.4375,0.75 1.4375,1.53125 0,0.84375 -0.5625,1.40625 -1.15625,2.015625 z m 0,0"
           id="path838" /></symbol><symbol
         overflow="visible"
         id="symbol105"><path
           style="stroke:none"
           d=""
           id="path5367" /></symbol><symbol
         overflow="visible"
         id="symbol8022"><path
           style="stroke:none"
           d="m 4.203125,5.328125 -3.546875,4.375 C 0.578125,9.796875 0.5625,9.8125 0.5625,9.859375 c 0,0.109375 0.09375,0.109375 0.28125,0.109375 h 8.25 L 9.953125,7.484375 h -0.25 C 9.453125,8.234375 8.796875,8.84375 7.9375,9.125 7.78125,9.1875 7.09375,9.421875 5.625,9.421875 H 1.390625 l 3.46875,-4.28125 C 4.921875,5.046875 4.9375,5.03125 4.9375,4.984375 4.9375,4.9375 4.9375,4.9375 4.875,4.84375 L 1.640625,0.40625 h 3.9375 c 1.140625,0 3.4375,0.0625 4.125,1.921875 h 0.25 L 9.09375,0 h -8.25 C 0.5625,0 0.5625,0.015625 0.5625,0.3125 Z m 0,0"
           id="path7631" /></symbol><symbol
         overflow="visible"
         id="symbol6107"><path
           style="stroke:none"
           d=""
           id="path7273" /></symbol><symbol
         overflow="visible"
         id="symbol906"><path
           style="stroke:none"
           d="m 4.75,-2.359375 c 0,-1.5625 -0.921875,-2.046875 -1.65625,-2.046875 -1.375,0 -2.6875,1.421875 -2.6875,2.828125 0,0.9375 0.59375,1.6875 1.625,1.6875 0.625,0 1.34375,-0.234375 2.09375,-0.84375 0.125,0.53125 0.453125,0.84375 0.90625,0.84375 0.53125,0 0.84375,-0.546875 0.84375,-0.703125 0,-0.078125 -0.0625,-0.109375 -0.125,-0.109375 -0.0625,0 -0.09375,0.03125 -0.125,0.109375 -0.1875,0.484375 -0.546875,0.484375 -0.5625,0.484375 -0.3125,0 -0.3125,-0.78125 -0.3125,-1.015625 0,-0.203125 0,-0.234375 0.109375,-0.34375 C 5.796875,-2.65625 6,-3.8125 6,-3.8125 6,-3.84375 5.984375,-3.921875 5.875,-3.921875 c -0.09375,0 -0.09375,0.03125 -0.140625,0.21875 -0.1875,0.625 -0.515625,1.375 -0.984375,1.96875 z m -0.65625,1.375 c -0.890625,0.765625 -1.65625,0.875 -2.046875,0.875 -0.59375,0 -0.90625,-0.453125 -0.90625,-1.09375 0,-0.484375 0.265625,-1.5625 0.578125,-2.0625 C 2.1875,-4 2.734375,-4.1875 3.078125,-4.1875 c 0.984375,0 0.984375,1.3125 0.984375,2.078125 0,0.375 0,0.953125 0.03125,1.125 z m 0,0"
           id="path2835" /></symbol><symbol
         overflow="visible"
         id="symbol7654"><path
           style="stroke:none"
           d="m 4.53125,-4.984375 c 0,-0.65625 -0.171875,-2.046875 -1.1875,-2.046875 -1.390625,0 -2.921875,2.8125 -2.921875,5.09375 0,0.9375 0.28125,2.046875 1.1875,2.046875 1.40625,0 2.921875,-2.859375 2.921875,-5.09375 z M 1.46875,-3.625 C 1.640625,-4.25 1.84375,-5.046875 2.25,-5.765625 2.515625,-6.25 2.875,-6.8125 3.328125,-6.8125 c 0.484375,0 0.546875,0.640625 0.546875,1.203125 0,0.5 -0.078125,1 -0.3125,1.984375 z m 2,0.328125 C 3.359375,-2.84375 3.15625,-2 2.765625,-1.28125 c -0.34375,0.6875 -0.71875,1.171875 -1.15625,1.171875 -0.328125,0 -0.53125,-0.296875 -0.53125,-1.21875 0,-0.421875 0.0625,-1 0.3125,-1.96875 z m 0,0"
           id="path4517" /></symbol><symbol
         overflow="visible"
         id="symbol5519"><path
           style="stroke:none"
           d="m 2.640625,-3.71875 h 1.125 C 3.4375,-2.25 3.34375,-1.8125 3.34375,-1.140625 c 0,0.140625 0,0.40625 0.078125,0.75 0.109375,0.4375 0.21875,0.5 0.359375,0.5 0.203125,0 0.421875,-0.171875 0.421875,-0.375 0,-0.0625 0,-0.078125 -0.0625,-0.21875 -0.296875,-0.71875 -0.296875,-1.375 -0.296875,-1.65625 0,-0.515625 0.078125,-1.0625 0.1875,-1.578125 h 1.125 c 0.140625,0 0.5,0 0.5,-0.34375 0,-0.234375 -0.21875,-0.234375 -0.40625,-0.234375 H 1.90625 c -0.21875,0 -0.59375,0 -1.03125,0.46875 -0.34375,0.390625 -0.609375,0.84375 -0.609375,0.890625 0,0.015625 0,0.109375 0.125,0.109375 0.078125,0 0.09375,-0.046875 0.15625,-0.125 C 1.03125,-3.71875 1.609375,-3.71875 1.8125,-3.71875 H 2.375 C 2.0625,-2.515625 1.53125,-1.3125 1.109375,-0.40625 1.03125,-0.25 1.03125,-0.234375 1.03125,-0.15625 c 0,0.1875 0.15625,0.265625 0.28125,0.265625 0.296875,0 0.375,-0.28125 0.5,-0.640625 C 1.953125,-1 1.953125,-1.015625 2.078125,-1.515625 Z m 0,0"
           id="path3932" /></symbol><symbol
         overflow="visible"
         id="symbol1929"><path
           style="stroke:none"
           d="m 4.375,-7.09375 c 0.046875,-0.140625 0.046875,-0.171875 0.046875,-0.1875 0,-0.109375 -0.078125,-0.203125 -0.1875,-0.203125 -0.078125,0 -0.140625,0.03125 -0.171875,0.09375 l -3.46875,9.5 C 0.546875,2.25 0.546875,2.28125 0.546875,2.296875 0.546875,2.40625 0.640625,2.5 0.75,2.5 0.875,2.5 0.90625,2.421875 0.96875,2.25 Z m 0,0"
           id="path2818" /></symbol></g><marker
       style="overflow:visible"
       refX="0"
       refY="0"
       orient="auto"
       inkscape:stockid="DotMv3904"
       viewBox="0 0 4.5333334 4.5333334"
       markerWidth="4.5333333"
       markerHeight="4.5333333"
       preserveAspectRatio="xMidYMid"
       id="DotMv3904"><path
         inkscape:connector-curvature="0"
         transform="matrix(0.4,0,0,0.4,2.96,0.4)"
         style="fill:#000000;fill-opacity:1;fill-rule:evenodd;stroke:#000000;stroke-width:1pt;stroke-opacity:1"
         d="m -2.5,-1 c 0,2.76 -2.24,5 -5,5 -2.76,0 -5,-2.24 -5,-5 0,-2.76 2.24,-5 5,-5 2.76,0 5,2.24 5,5 z"
         id="path55644" /></marker></defs><sodipodi:namedview
     id="base"
     pagecolor="#ffffff"
     bordercolor="#666666"
     borderopacity="1.0"
     inkscape:pageopacity="1"
     inkscape:pageshadow="2"
     inkscape:zoom="0.63384966"
     inkscape:cx="324.9982"
     inkscape:cy="490.65263"
     inkscape:document-units="px"
     inkscape:current-layer="layer1"
     showgrid="true"
     fit-margin-top="1"
     fit-margin-left="1"
     fit-margin-right="1"
     fit-margin-bottom="1"
     inkscape:window-width="1683"
     inkscape:window-height="1358"
     inkscape:window-x="74"
     inkscape:window-y="10"
     inkscape:window-maximized="0"
     inkscape:snap-global="false"
     inkscape:showpageshadow="false"
     inkscape:snap-bbox="true"
     units="mm"
     inkscape:snap-midpoints="true"
     inkscape:snap-object-midpoints="false"
     inkscape:bbox-paths="true"
     inkscape:snap-nodes="true"
     inkscape:snap-bbox-edge-midpoints="true"
     inkscape:snap-others="false"
     inkscape:bbox-nodes="false"
     inkscape:snap-grids="true"
     inkscape:object-paths="true"
     inkscape:document-rotation="0"
     inkscape:pagecheckerboard="0"
     inkscape:deskcolor="#d1d1d1"><inkscape:grid
       type="xygrid"
       id="grid3034"
       empspacing="5"
       visible="true"
       enabled="true"
       snapvisiblegridlinesonly="true"
       units="mm"
       spacingx="3.7795276"
       spacingy="3.7795276"
       originx="416.40471"
       originy="-223.29715" /></sodipodi:namedview><metadata
     id="metadata14665"><rdf:RDF><cc:Work
         rdf:about=""><dc:format>image/svg+xml</dc:format><dc:type
           rdf:resource="http://purl.org/dc/dcmitype/StillImage" /></cc:Work></rdf:RDF></metadata><g
     inkscape:label="Layer 1"
     inkscape:groupmode="layer"
     id="layer1"
     transform="translate(108.62383,-613.42902)"><rect
       style="opacity:1;fill:#e4e8eb;stroke:none;stroke-width:0.755906;stroke-linecap:round;stroke-linejoin:round;stop-color:#000000"
       id="rect4701"
       width="834.10492"
       height="729.52435"
       x="-108.62383"
       y="613.42902" /><text
       id="text3025"
       y="331.1264"
       x="304.55099"
       style="font-style:normal;font-variant:normal;font-weight:normal;font-stretch:normal;line-height:100%;font-family:Arial;-inkscape-font-specification:Arial;text-align:start;writing-mode:lr-tb;text-anchor:start;fill:#000000;fill-opacity:1;stroke:none"
       xml:space="preserve"><tspan
         y="331.1264"
         x="304.55099"
         id="tspan3027"
         sodipodi:role="line"
         style="font-size:8px">default: 6pt</tspan></text><text
       xml:space="preserve"
       transform="translate(284.54088,366.89153)"
       id="text2085"
       style="font-style:normal;font-variant:normal;font-weight:normal;font-stretch:normal;font-size:8px;line-height:1;font-family:Arial;-inkscape-font-specification:Arial;font-variant-ligatures:normal;font-variant-position:normal;font-variant-caps:normal;font-variant-numeric:normal;font-variant-alternates:normal;font-variant-east-asian:normal;font-feature-settings:normal;font-variation-settings:normal;text-indent:0;text-align:start;text-decoration-line:none;text-decoration-style:solid;text-decoration-color:#000000;letter-spacing:normal;word-spacing:normal;text-transform:none;writing-mode:lr-tb;direction:ltr;text-orientation:mixed;dominant-baseline:auto;baseline-shift:baseline;white-space:pre;shape-inside:url(#rect2087);shape-padding:0;shape-margin:0;inline-size:0;display:inline;opacity:1;vector-effect:none;fill:#000000;fill-opacity:1;stroke:none;stroke-width:1;stroke-linecap:butt;stroke-linejoin:miter;stroke-miterlimit:4;stroke-dasharray:none;stroke-dashoffset:0;stroke-opacity:1;-inkscape-stroke:none;stop-color:#000000;stop-opacity:1" /><text
       id="text4505"
       y="536.70715"
       x="393.89569"
       style="font-style:normal;font-variant:normal;font-weight:normal;font-stretch:normal;font-size:8px;line-height:1.2;font-family:Arial;-inkscape-font-specification:Arial;text-align:start;writing-mode:lr-tb;text-anchor:start;fill:#000000;fill-opacity:1;stroke:none"
       xml:space="preserve"><tspan
         y="536.70715"
         x="393.89569"
         sodipodi:role="line"
         style="font-style:normal;font-variant:normal;font-weight:normal;font-stretch:normal;font-size:8px;font-family:'TeX Gyre Heros';-inkscape-font-specification:'TeX Gyre Heros'"
         rotate="0"
         id="tspan4503" /></text><image
       width="266.53708"
       height="344.93033"
       preserveAspectRatio="none"
       xlink:href="thumbnail-ieee-pdf.png"
       id="image3503"
       x="450.92593"
       y="990.8587" /><image
       width="266.53708"
       height="344.93033"
       preserveAspectRatio="none"
       xlink:href="thumbnail-memo1-typst-0.png"
       id="image3515"
       x="-97.252502"
       y="629.19891" /><image
       width="266.53708"
       height="344.93033"
       preserveAspectRatio="none"
       xlink:href="thumbnail-memo1-typst-1.png"
       id="image3527"
       x="176.83672"
       y="629.19891" /><image
       width="266.53708"
       height="344.93033"
       preserveAspectRatio="none"
       xlink:href="thumbnail-memo2-typst.png"
       id="image3539"
       x="450.92593"
       y="629.19891" /><image
       width="531.57227"
       height="318.97934"
       preserveAspectRatio="none"
       xlink:href="thumbnail-poster-typst.png"
       id="image3551"
       x="-97.252502"
       y="1004.978" /><rect
       style="opacity:1;fill:none;stroke:#d62728;stroke-width:0.730054;stroke-linecap:round;stroke-linejoin:round;stop-color:#000000"
       id="rect3824"
       width="548.22522"
       height="350.15042"
       x="-100.62196"
       y="627.11285" /></g></svg>
